<svg height="512" viewBox="0 0 512 512" width="512" xmlns="http://www.w3.org/2000/svg"><g><g fill="#57a4ff"><path d="m16 416h48l51.2-112h-35.2z"/><path d="m431 304h-35l52 112h48z"/><path d="m416 244v-168a19.994 19.994 0 0 0 -20-20h-280a19.994 19.994 0 0 0 -20 20v168a19.994 19.994 0 0 0 20 20h172l20 40 12 24 12-24 20-40h44a19.994 19.994 0 0 0 20-20zm-240-68a16 16 0 1 1 16-16 16 16 0 0 1 -16 16zm80 0a16 16 0 1 1 16-16 16 16 0 0 1 -16 16zm80 0a16 16 0 1 1 16-16 16 16 0 0 1 -16 16z"/></g><g fill="#004fac"><path d="m502.92 411.98-65-112a8.011 8.011 0 0 0 -6.92-3.98h-86.06l12-24h39.06a28.031 28.031 0 0 0 28-28v-168a28.031 28.031 0 0 0 -28-28h-280a28.031 28.031 0 0 0 -28 28v168a28.031 28.031 0 0 0 28 28h167.06l12 24h-215.06a8.019 8.019 0 0 0 -6.95 4.03l-64 112a8.017 8.017 0 0 0 -1.05 3.97v40a8 8 0 0 0 8 8h480a8 8 0 0 0 8-8v-40a8 8 0 0 0 -1.08-4.02zm-76.53-99.98 55.72 96h-29l-44.58-96zm-138.39-56h-172a12.01 12.01 0 0 1 -12-12v-168a12.01 12.01 0 0 1 12-12h280a12.01 12.01 0 0 1 12 12v168a12.01 12.01 0 0 1 -12 12h-44a8.011 8.011 0 0 0 -7.16 4.42l-24.84 49.69-24.84-49.69a8.011 8.011 0 0 0 -7.16-4.42zm15.06 56 9.78 19.58a8.009 8.009 0 0 0 14.32 0l9.78-19.58h53.95l44.58 96h-359.02l43.89-96zm-218.42 0h18.11l-43.89 96h-29.07zm403.36 136h-464v-24h464z"/><path d="m256 136a24 24 0 1 0 24 24 24.027 24.027 0 0 0 -24-24zm0 32a8 8 0 1 1 8-8 8.009 8.009 0 0 1 -8 8z"/><path d="m176 136a24 24 0 1 0 24 24 24.027 24.027 0 0 0 -24-24zm0 32a8 8 0 1 1 8-8 8.009 8.009 0 0 1 -8 8z"/><path d="m336 184a24 24 0 1 0 -24-24 24.027 24.027 0 0 0 24 24zm0-32a8 8 0 1 1 -8 8 8.009 8.009 0 0 1 8-8z"/><circle cx="256" cy="360" r="8"/><circle cx="288" cy="360" r="8"/><circle cx="224" cy="360" r="8"/></g></g></svg>