<svg height="512" viewBox="0 0 512 512" width="512" xmlns="http://www.w3.org/2000/svg"><g><g fill="#57a4ff"><path d="m288 16 8 24h64l8-24z"/><path d="m324 136h-248a19.994 19.994 0 0 0 -20 20v28h288v-28a19.994 19.994 0 0 0 -20-20z"/></g><g fill="#004fac"><path d="m436 8h-216a28.031 28.031 0 0 0 -28 28v92h-116a28.031 28.031 0 0 0 -28 28v200a28.031 28.031 0 0 0 28 28h116v92a28.031 28.031 0 0 0 28 28h216a28.031 28.031 0 0 0 28-28v-440a28.031 28.031 0 0 0 -28-28zm-79.1 16-2.67 8h-52.46l-2.67-8zm-292.9 132a12.01 12.01 0 0 1 12-12h248a12.01 12.01 0 0 1 12 12v20h-272zm12 212a12.01 12.01 0 0 1 -12-12v-164h272v164a12.01 12.01 0 0 1 -12 12zm372 108a12.01 12.01 0 0 1 -12 12h-216a12.01 12.01 0 0 1 -12-12v-92h116a28.031 28.031 0 0 0 28-28v-200a28.031 28.031 0 0 0 -28-28h-116v-92a12.01 12.01 0 0 1 12-12h62.23l6.18 18.53a8 8 0 0 0 7.59 5.47h64a8 8 0 0 0 7.59-5.47l6.18-18.53h62.23a12.01 12.01 0 0 1 12 12z"/><path d="m352 464h-48a8 8 0 0 0 0 16h48a8 8 0 0 0 0-16z"/><path d="m144 168h8a8 8 0 0 0 0-16h-8a8 8 0 0 0 0 16z"/><path d="m112 168h8a8 8 0 0 0 0-16h-8a8 8 0 0 0 0 16z"/><path d="m80 168h8a8 8 0 0 0 0-16h-8a8 8 0 0 0 0 16z"/><path d="m219.578 232.845a8 8 0 0 0 -10.733 3.577l-40 80a8 8 0 1 0 14.31 7.156l40-80a8 8 0 0 0 -3.577-10.733z"/><path d="m243.1 326.323a8 8 0 0 0 11.223-1.423l31-40a8 8 0 0 0 0-9.8l-31-40a8 8 0 0 0 -12.646 9.8l27.2 35.1-27.2 35.1a8 8 0 0 0 1.423 11.223z"/><path d="m147.9 233.677a8 8 0 0 0 -11.223 1.423l-31 40a8 8 0 0 0 0 9.8l31 40a8 8 0 1 0 12.646-9.8l-27.2-35.1 27.2-35.1a8 8 0 0 0 -1.423-11.223z"/></g></g></svg>