<svg height="496pt" viewBox="0 -35 496 495" width="496pt" xmlns="http://www.w3.org/2000/svg"><path d="m371.921875 80.683594c-24.476563-45.421875-72.339844-73.292969-123.921875-72.160156-66.960938 0-122.480469 43.597656-133.761719 100.878906-.796875 0-1.519531-.082032-2.238281-.082032-57.441406 0-104 41.921876-104 93.601563 0 49.28125 42.320312 89.519531 96 93.199219v.402344h48v-64h48v64h96v-40h-40l64-80 64 80h-40v40h32v-.402344c62.558594-3.679688 112-50.398438 112-107.597656 0-58.480469-51.601562-105.921876-116.078125-107.839844zm0 0" fill="#57a4ff"/><path d="m376.871094 72.898438c-26.738282-45.625-75.996094-73.289063-128.871094-72.375-67.359375 0-125.183594 42.03125-140.152344 100.871093-59.847656 1.984375-107.847656 46.765625-107.847656 101.527344 0 52 44.121094 95.902344 100.910156 100.984375.980469.410156 2.03125.617188 3.089844.617188h40v24h-32c-3.078125-.003907-5.878906 1.761718-7.214844 4.53125-1.332031 2.773437-.957031 6.066406.96875 8.46875l64 80c1.515625 1.898437 3.816406 3.003906 6.246094 3.003906s4.730469-1.105469 6.246094-3.003906l64-80c1.925781-2.402344 2.300781-5.695313.96875-8.46875-1.335938-2.769532-4.136719-4.535157-7.214844-4.53125h-32v-24h80v56c0 4.417968 3.582031 8 8 8h48c4.417969 0 8-3.582032 8-8v-56h24c.976562 0 1.941406-.195313 2.839844-.570313 65.886718-4.992187 117.160156-55.28125 117.160156-115.429687 0-61.464844-51.953125-111.457032-119.128906-115.625zm-153.519532 271.625-47.351562 59.199218-47.351562-59.199218h23.351562c4.417969 0 8-3.582032 8-8v-96h32v96c0 4.417968 3.582031 8 8 8zm112.648438 8h-32v-96c0-4.421876-3.582031-8-8-8h-23.351562l47.351562-59.203126 47.351562 59.203126h-23.351562c-4.417969 0-8 3.578124-8 8zm39.527344-64.386719c-.65625.042969-1.304688.171875-1.925782.386719h-21.601562v-24h32c3.078125 0 5.878906-1.761719 7.214844-4.535157 1.332031-2.773437.957031-6.066406-.96875-8.464843l-64-80c-1.570313-1.808594-3.851563-2.84375-6.246094-2.84375s-4.675781 1.035156-6.246094 2.84375l-64 80c-1.925781 2.398437-2.300781 5.691406-.96875 8.464843 1.335938 2.773438 4.136719 4.535157 7.214844 4.535157h32v24h-80v-56c0-4.421876-3.582031-8-8-8h-48c-4.417969 0-8 3.578124-8 8v56h-37.503906c-.632813-.210938-1.289063-.335938-1.953125-.378907-49.648438-3.40625-88.542969-40.839843-88.542969-85.222656 0-47.199219 43.03125-85.601563 96.585938-85.601563h.054687c.519531 0 1.039063.050782 1.597656.050782 3.824219-.003906 7.113281-2.707032 7.851563-6.457032 10.773437-54.679687 63.726562-94.390624 125.910156-94.390624 50.320312 0 96.152344 26.589843 116.800781 67.742187 1.316407 2.632813 3.96875 4.328125 6.910157 4.417969 60.714843 1.804687 108.289062 45.664062 108.289062 99.839844 0 52.414062-45.886719 96.167968-104.472656 99.613281zm0 0" fill="#004fac"/></svg>